<?xml version="1.0" encoding="UTF-8" standalone="no"?> <svg id="Capa_1" enable-background="new 0 0 512 512" height="512" viewBox="0 0 512 512" width="512" xmlns="http://www.w3.org/2000/svg"><g><path d="m211 360.993h90v70.513h-90z" fill="#918291"/><path d="m494.5 372.5h-477c-5.523 0-10-4.477-10-10v-280c0-5.523 4.477-10 10-10h477c5.523 0 10 4.477 10 10v280c0 5.523-4.477 10-10 10z" fill="#f5f8f9"/><path d="m37.5 72.5v300h-20c-5.52 0-10-4.48-10-10v-280c0-5.52 4.48-10 10-10z" fill="#e8edf2"/><g><path d="m494.5 380h-477c-9.649 0-17.5-7.851-17.5-17.5v-280c0-9.649 7.851-17.5 17.5-17.5h477c9.649 0 17.5 7.851 17.5 17.5v280c0 9.649-7.851 17.5-17.5 17.5zm-477-300c-1.379 0-2.5 1.122-2.5 2.5v280c0 1.378 1.121 2.5 2.5 2.5h477c1.379 0 2.5-1.122 2.5-2.5v-280c0-1.378-1.121-2.5-2.5-2.5z" fill="#a79ba7"/></g><path d="m374.5 447h-199l-35.27-2.193c-1.105 0-2-.895-2-2l.118-6.282c0-8.284 6.716-15 15-15l34.505-1.525h173.647c8.284 0 15 6.716 15 15v10c0 1.105-.895 2-2 2z" fill="#a79ba7"/><path d="m190.5 420c-8.28 0-15 6.72-15 15v12h-38c-1.1 0-2-.9-2-2v-10c0-8.28 6.72-15 15-15z" fill="#918291"/><g><g><path d="m183 202.25h-97l-22.628-5.036c-1.657 0-3-1.343-3-3l2.259-64.094c0-1.657 1.343-3 3-3l20.369-4.87h15l18.101 8.435 21.899-8.435h42c1.657 0 3 1.343 3 3v74c0 1.657-1.343 3-3 3z" fill="#ffd18d"/><g fill="#fbbd80"><path d="m86 122.25v80h-27c-1.66 0-3-1.34-3-3v-74c0-1.66 1.34-3 3-3z"/><path d="m138.142 160.892-16.284-7.735c-.543-.258-1.173-.258-1.716 0l-16.284 7.735c-1.327.63-2.858-.337-2.858-1.807v-36.835h40v36.836c0 1.469-1.531 2.437-2.858 1.806z"/></g></g><g><path d="m183 322.75h-97l-22.628-5.036c-1.657 0-3-1.343-3-3l2.259-64.094c0-1.657 1.343-3 3-3l20.369-4.87h15l18.101 8.435 21.899-8.435h42c1.657 0 3 1.343 3 3v74c0 1.657-1.343 3-3 3z" fill="#ffd18d"/><g fill="#fbbd80"><path d="m86 242.75v80h-27c-1.66 0-3-1.34-3-3v-74c0-1.66 1.34-3 3-3z"/><path d="m138.142 281.392-16.284-7.735c-.543-.258-1.173-.258-1.716 0l-16.284 7.735c-1.327.63-2.858-.337-2.858-1.807v-36.835h40v36.836c0 1.469-1.531 2.437-2.858 1.806z"/></g></g><path d="m449.748 139.92-4.348-2.67h-36.4c-1.657 0-3 1.343-3 3v36.4l2.324 4.953c0 1.657 1.343 3 3 3l5.276 2.647h36.4c1.657 0 3-1.343 3-3v-36.4l-3.252-4.93c0-1.656-1.343-3-3-3z" fill="#fd7f86"/><path d="m453 257.75h-44c-1.657 0-3 1.343-3 3v44c0 1.657 1.343 3 3 3h44c1.657 0 3-1.343 3-3v-44c0-1.657-1.343-3-3-3z" fill="#b8eb7c"/><g><g><g><path d="m301.5 129.75h-76c-4.142 0-7.5-3.357-7.5-7.5s3.358-7.5 7.5-7.5h76c4.143 0 7.5 3.357 7.5 7.5s-3.357 7.5-7.5 7.5z" fill="#c8effe"/></g><g><path d="m365.5 169.75h-68.191c-4.143 0-7.5-3.357-7.5-7.5s3.357-7.5 7.5-7.5h68.191c4.143 0 7.5 3.357 7.5 7.5s-3.357 7.5-7.5 7.5z" fill="#c8effe"/></g><g><path d="m267.309 169.75h-41.809c-4.142 0-7.5-3.357-7.5-7.5s3.358-7.5 7.5-7.5h41.809c4.143 0 7.5 3.357 7.5 7.5s-3.358 7.5-7.5 7.5z" fill="#c8effe"/></g><g><path d="m365.5 209.75h-140c-4.142 0-7.5-3.357-7.5-7.5s3.358-7.5 7.5-7.5h140c4.143 0 7.5 3.357 7.5 7.5s-3.357 7.5-7.5 7.5z" fill="#c8effe"/></g></g><g><g><path d="m271.5 250.25h-45.5c-4.142 0-7.5-3.357-7.5-7.5s3.358-7.5 7.5-7.5h45.5c4.143 0 7.5 3.357 7.5 7.5s-3.357 7.5-7.5 7.5z" fill="#c8effe"/></g><g><path d="m366 290.25h-140c-4.142 0-7.5-3.357-7.5-7.5s3.358-7.5 7.5-7.5h140c4.143 0 7.5 3.357 7.5 7.5s-3.357 7.5-7.5 7.5z" fill="#c8effe"/></g><g><path d="m311.309 330.25h-85.309c-4.142 0-7.5-3.357-7.5-7.5s3.358-7.5 7.5-7.5h85.309c4.143 0 7.5 3.357 7.5 7.5s-3.358 7.5-7.5 7.5z" fill="#c8effe"/></g></g></g><g><path d="m456 140.25v7.6l-39.4 39.4h-7.6c-1.66 0-3-1.34-3-3v-7.6l39.4-39.4h7.6c1.66 0 3 1.34 3 3z" fill="#fe656f"/></g></g></g></svg>